<?xml version="1.0" encoding="UTF-8" standalone="no"?>
<!-- Created with Inkscape (http://www.inkscape.org/) -->

<svg
   xmlns:dc="http://purl.org/dc/elements/1.1/"
   xmlns:cc="http://creativecommons.org/ns#"
   xmlns:rdf="http://www.w3.org/1999/02/22-rdf-syntax-ns#"
   xmlns:svg="http://www.w3.org/2000/svg"
   xmlns="http://www.w3.org/2000/svg"
   xmlns:sodipodi="http://sodipodi.sourceforge.net/DTD/sodipodi-0.dtd"
   xmlns:inkscape="http://www.inkscape.org/namespaces/inkscape"
   width="67.744293mm"
   height="78.946625mm"
   viewBox="0 0 240.03883 279.73213"
   id="svg2"
   version="1.1"
   inkscape:version="0.91 r13725"
   sodipodi:docname="ext_icon.svg">
  <defs
     id="defs4" />
  <sodipodi:namedview
     id="base"
     pagecolor="#ffffff"
     bordercolor="#666666"
     borderopacity="1.0"
     inkscape:pageopacity="0.0"
     inkscape:pageshadow="2"
     inkscape:zoom="0.35"
     inkscape:cx="-517.77999"
     inkscape:cy="304.54712"
     inkscape:document-units="px"
     inkscape:current-layer="layer1"
     showgrid="false"
     fit-margin-top="0"
     fit-margin-left="0"
     fit-margin-right="0"
     fit-margin-bottom="0"
     inkscape:window-width="1442"
     inkscape:window-height="773"
     inkscape:window-x="2132"
     inkscape:window-y="137"
     inkscape:window-maximized="0" />
  <metadata
     id="metadata7">
    <rdf:RDF>
      <cc:Work
         rdf:about="">
        <dc:format>image/svg+xml</dc:format>
        <dc:type
           rdf:resource="http://purl.org/dc/dcmitype/StillImage" />
        <dc:title></dc:title>
      </cc:Work>
    </rdf:RDF>
  </metadata>
  <g
     inkscape:label="Ebene 1"
     inkscape:groupmode="layer"
     id="layer1"
     transform="translate(-231.35142,-562.89149)">
    <path
       style="fill:#000000"
       d="m 241.97643,841.90817 c -3.77141,-1.14092 -7.53968,-4.68274 -9.24818,-8.6924 -1.13752,-2.66966 -1.37112,-24.96223 -1.37112,-130.84887 0,-141.25395 -0.43871,-131.8439 6.37329,-136.70294 l 3.12671,-2.23031 65.2206,-0.27108 65.22061,-0.27108 0.27939,45.27108 0.2794,45.27108 2.39866,3.36314 c 4.3641,6.11888 4.51966,6.13686 53.08579,6.13686 l 44.04868,0 -0.26657,84.92703 c -0.26367,84.00687 -0.2889,84.95694 -2.32835,87.68821 -1.13398,1.51865 -3.30435,3.68899 -4.82304,4.82297 -2.74559,2.0501 -3.37459,2.06277 -110.93821,2.23478 -59.49733,0.0951 -109.47327,-0.21916 -111.05766,-0.69847 z m 149.3807,-235.55785 c 0,-21.78328 0.37135,-36.44848 0.91791,-36.25 1.64889,0.59878 72.08209,70.77346 72.08209,71.81752 0,0.66919 -12.45453,1.01581 -36.5,1.01581 l -36.5,0 0,-36.58333 z"
       id="path4201"
       inkscape:connector-curvature="0" />
  </g>
</svg>
